{"title":"Khoobsurat 2014 Hindi DVDSCR-Rip Xvid MP3-TeamTNT","uid":11059185,"size":738883999,"categoryP":"video","categoryS":"movies","magnet":"?xt=urn:btih:2568442ac53697b2bd4047ac7c4713b71df71b84&amp;dn=Khoobsurat+2014+Hindi+DVDSCR-Rip+Xvid+MP3-TeamTNT&amp;tr=udp%3A%2F%2Ftracker.openbittorrent.com%3A80&amp;tr=udp%3A%2F%2Fopen.demonii.com%3A1337&amp;tr=udp%3A%2F%2Ftracker.coppersurfer.tk%3A6969&amp;tr=udp%3A%2F%2Fexodus.desync.com%3A6969","seeders":29,"leechers":1,"uploader":"HeroMaster","files":-1,"time":1411152732,"description":"::::::::: TEAMTNT PRESENTS :::::::::\n\n &lt;a href=&quot;\nhttp://i.imgur.com/GFahEsi.png&quot; rel=&quot;nofollow&quot; target=&quot;_NEW&quot;&gt;\nhttp://i.imgur.com/GFahEsi.png&lt;/a&gt;\n\n\n:::: Khoobsurat 2014 Hindi DVDSCR-Rip Xvid MP3 ::::\n\n\n::Information::\n\n\nKhoobsurat\n(2014)\n[1CD] DVDSCR Rip Xvid Mp3 \nTEAMTNT Exclusive\n\n\nMovie:............Khoobsurat\nSource: ..........DVDSCR @ TeamTNT\nYear:.............2014\n\n\n::More Information::\n\n\nGeneral\nComplete name : D:Khoobsurat.avi\nFormat : AVI\nFormat/Info : Audio Video Interleave\nFile size : 696 MiB\nDuration : 2h 6mn\nOverall bit rate : 767 Kbps\n\nVideo\nID : 0\nFormat : MPEG-4 Visual\nFormat profile : Advanced Simple@L5\nFormat settings, BVOP : 2\nFormat settings, QPel : No\nFormat settings, GMC : No warppoints\nFormat settings, Matrix : Default (H.263)\nCodec ID : XVID\nCodec ID/Hint : XviD\nDuration : 2h 6mn\nBit rate : 678 Kbps\nWidth : 640 pixels\nHeight : 272 pixels\nDisplay aspect ratio : 2.35:1\nFrame rate : 25.000 fps\nColor space : YUV\nChroma subsampling : 4:2:0\nBit depth : 8 bits\nScan type : Progressive\nCompression mode : Lossy\nBits/(Pixel*Frame) : 0.156\nStream size : 615 MiB (88%)\nWriting library : XviD 1.2.1 (UTC 2008-12-04)\n\nAudio\nID : 1\nFormat : MPEG Audio\nFormat version : Version 1\nFormat profile : Layer 3\nMode : Joint stereo\nMode extension : MS Stereo\nCodec ID : 55\nCodec ID/Hint : MP3\nDuration : 2h 6mn\nSource duration : 2h 6mn\nBit rate mode : Constant\nBit rate : 80.0 Kbps\nChannel(s) : 2 channels\nSampling rate : 32.0 KHz\nCompression mode : Lossy\nStream size : 72.5 MiB (10%)\nAlignment : Aligned on interleaves\nInterleave, duration : 40 ms (1.00 video frame)\nWriting library : LAME3.99r\nEncoding settings : -m j -V 4 -q 2 -lowpass 13.5 -b 80\n\n\n::IMDB::\n\n &lt;a href=&quot;\nhttp://www.imdb.com/title/tt3554418/&quot; rel=&quot;nofollow&quot; target=&quot;_NEW&quot;&gt;\nhttp://www.imdb.com/title/tt3554418/&lt;/a&gt;\n\n\n::Greetz and Respect::\n\n\nALL CREDIT Goes to Studio for Encoding and Distribution.\n\n\n::Poster::\n\n &lt;a href=&quot;\nhttp://i.imgur.com/y4d55Sx.jpg&quot; rel=&quot;nofollow&quot; target=&quot;_NEW&quot;&gt;\nhttp://i.imgur.com/y4d55Sx.jpg&lt;/a&gt;\n\n\n::Screenshots::\n\n &lt;a href=&quot;\nhttp://i.imgur.com/ipVt24g.jpg&quot; rel=&quot;nofollow&quot; target=&quot;_NEW&quot;&gt;\nhttp://i.imgur.com/ipVt24g.jpg&lt;/a&gt;\n\n &lt;a href=&quot;\nhttp://i.imgur.com/TgS4cFM.jpg&quot; rel=&quot;nofollow&quot; target=&quot;_NEW&quot;&gt;\nhttp://i.imgur.com/TgS4cFM.jpg&lt;/a&gt;\n\n &lt;a href=&quot;\nhttp://i.imgur.com/zcJm1QC.jpg&quot; rel=&quot;nofollow&quot; target=&quot;_NEW&quot;&gt;\nhttp://i.imgur.com/zcJm1QC.jpg&lt;/a&gt;\n\n\nSEED AND ENJOY!","torrent":{"xt":"urn:btih:2568442ac53697b2bd4047ac7c4713b71df71b84","amp;dn":"Khoobsurat+2014+Hindi+DVDSCR-Rip+Xvid+MP3-TeamTNT","amp;tr":["udp%3A%2F%2Ftracker.openbittorrent.com%3A80","udp%3A%2F%2Fopen.demonii.com%3A1337","udp%3A%2F%2Ftracker.coppersurfer.tk%3A6969","udp%3A%2F%2Fexodus.desync.com%3A6969"],"infoHash":"2568442ac53697b2bd4047ac7c4713b71df71b84","infoHashBuffer":{"type":"Buffer","data":[37,104,68,42,197,54,151,178,189,64,71,172,124,71,19,183,29,247,27,132]},"announce":[],"urlList":[]}}